<svg viewBox="0 0 71.28 52.14634615384616" xmlns="http://www.w3.org/2000/svg" data-name="Layer 2" id="Layer_2" style="max-height: 500px" width="71.28" height="52.14634615384616">
  <defs>
    <style>
      .cls-1 {
        fill: #f0f8f8;
      }
    </style>
  </defs>
  <g data-name="Layer 1" id="Layer_1">
    <g>
      <path d="M113.06,18.99c-1.9-.94-4.31-1.41-7.24-1.41s-5.34.46-7.45,1.39c-2.11.92-3.74,2.21-4.89,3.87-1.15,1.66-1.73,3.56-1.73,5.73v.16h7.9v-.21c0-1.5.44-2.54,1.31-3.14.87-.59,2.3-.89,4.29-.89,2.09,0,3.56.3,4.42.89.85.59,1.28,1.74,1.28,3.45v.99l-11.24,1.15c-1.88.21-3.45.6-4.71,1.18s-2.2,1.33-2.82,2.27c-.63.94-.94,2.07-.94,3.4,0,2.16.8,3.87,2.41,5.12,1.6,1.25,3.82,1.88,6.64,1.88s5.29-.58,7.09-1.75c1.8-1.17,2.99-2.76,3.58-4.78h.42v6.01h7.32v-15.37c0-2.3-.46-4.3-1.39-5.99-.92-1.69-2.34-3.01-4.24-3.95ZM107.18,38.76c-1.22.35-2.77.52-4.65.52-1.15,0-2.01-.16-2.56-.47-.56-.31-.84-.82-.84-1.52,0-.63.22-1.09.65-1.39.44-.3,1.12-.48,2.07-.55l9.07-1.04c-.07,1.12-.37,2.04-.94,2.74-.65.78-1.58,1.35-2.8,1.7Z" class="cls-1"/>
      <path d="M122.54,44.3h7.84V.4h-3.15c-2.59,0-4.7,2.1-4.7,4.7v39.2Z" class="cls-1"/>
      <path d="M134.37,44.3h7.84V.4h-3.15c-2.59,0-4.7,2.1-4.7,4.7v39.2Z" class="cls-1"/>
      <path d="M167.81,19.25c-2.23-1.12-4.85-1.67-7.84-1.67s-5.57.56-7.82,1.67c-2.25,1.12-4,2.69-5.26,4.73-1.26,2.04-1.88,4.45-1.88,7.24s.63,5.15,1.88,7.19c1.26,2.04,3.01,3.62,5.26,4.73,2.25,1.12,4.85,1.67,7.82,1.67s5.61-.56,7.84-1.67c2.23-1.12,3.97-2.69,5.23-4.73,1.26-2.04,1.88-4.44,1.88-7.19s-.63-5.2-1.88-7.24c-1.26-2.04-3-3.62-5.23-4.73ZM165.53,36.27c-1.06,1.06-2.92,1.6-5.57,1.6s-4.51-.53-5.57-1.6c-1.06-1.06-1.59-2.75-1.59-5.05s.53-4.04,1.59-5.12c1.06-1.08,2.92-1.62,5.57-1.62s4.51.54,5.57,1.62c1.06,1.08,1.59,2.79,1.59,5.12s-.53,3.98-1.59,5.05Z" class="cls-1"/>
      <path d="M177.74,44.3h7.84v-26.2h-3.15c-2.59,0-4.7,2.1-4.7,4.7v21.5Z" class="cls-1"/>
      <path d="M214.61,22.94c-.92-1.69-2.34-3.01-4.24-3.95-1.9-.94-4.31-1.41-7.24-1.41s-5.34.46-7.45,1.39c-2.11.92-3.74,2.21-4.89,3.87-1.15,1.66-1.73,3.56-1.73,5.73v.16h7.9v-.21c0-1.5.44-2.54,1.31-3.14.87-.59,2.3-.89,4.29-.89,2.09,0,3.56.3,4.42.89.85.59,1.28,1.74,1.28,3.45v.99l-11.24,1.15c-1.88.21-3.45.6-4.71,1.18s-2.2,1.33-2.82,2.27c-.63.94-.94,2.07-.94,3.4,0,2.16.8,3.87,2.41,5.12,1.6,1.25,3.82,1.88,6.64,1.88s5.29-.58,7.09-1.75c1.8-1.17,2.99-2.76,3.58-4.78h.42v6.01h7.32v-15.37c0-2.3-.46-4.3-1.39-5.99ZM204.5,38.76c-1.22.35-2.77.52-4.65.52-1.15,0-2.01-.16-2.56-.47-.56-.31-.84-.82-.84-1.52,0-.63.22-1.09.65-1.39.44-.3,1.12-.48,2.07-.55l9.07-1.04c-.07,1.12-.37,2.04-.94,2.74-.65.78-1.58,1.35-2.8,1.7Z" class="cls-1"/>
      <path d="M185.69,14.35c-.58.58-1.59.87-3.03.87s-2.45-.29-3.03-.87c-.58-.58-.87-1.49-.87-2.74s.29-2.2.87-2.78c.58-.59,1.59-.88,3.03-.88s2.45.29,3.03.88c.58.59.87,1.52.87,2.78s-.29,2.16-.87,2.74Z" class="cls-1"/>
      <path d="M65.89,14.35c-.58.58-1.59.87-3.03.87s-2.45-.29-3.03-.87c-.58-.58-.87-1.49-.87-2.74s.29-2.2.87-2.78c.58-.59,1.59-.88,3.03-.88s2.45.29,3.03.88c.58.59.87,1.52.87,2.78s-.29,2.16-.87,2.74Z" class="cls-1"/>
      <path d="M55.99,14.35c-.58.58-1.59.87-3.03.87s-2.45-.29-3.03-.87c-.58-.58-.87-1.49-.87-2.74s.29-2.2.87-2.78c.58-.59,1.59-.88,3.03-.88s2.45.29,3.03.88c.58.59.87,1.52.87,2.78s-.29,2.16-.87,2.74Z" class="cls-1"/>
      <path d="M22.19,7.95c4.69,0,9.07,2.31,11.74,6.18.85,1.34,13.84,22.31,13.84,22.31h-25.96c-7.76-.21-13.85-6.45-13.86-14.22-.01-7.47,6.03-13.86,13.47-14.25.26-.01.52-.02.78-.02M21,.03C9.28.64-.02,10.5,0,22.23c.02,12.04,9.63,21.83,21.61,22.14h.01s32.33.02,32.33.02h0c4.48,0,8.11-3.63,8.11-8.11v-17.96h-2.51c-3.09,0-5.6,2.51-5.6,5.6v7.41s-13.08-21.12-13.42-21.62l-.02-.04h0C36.51,3.83,29.8,0,22.19,0c0,0-.79.01-1.19.03Z" class="cls-1"/>
    </g>
  </g>
</svg>